<svg width="112" height="89" viewBox="0 0 112 89" fill="none" xmlns="http://www.w3.org/2000/svg">
<path d="M18.1051 53.5369C16.4943 53.5114 14.8835 53.2045 13.2727 52.6165C11.6619 52.0284 10.1918 51.0376 8.86222 49.6442C7.53267 48.2379 6.4652 46.3395 5.6598 43.9489C4.8544 41.5455 4.4517 38.5284 4.4517 34.8977C4.4517 31.4205 4.7777 28.3395 5.42969 25.6548C6.08168 22.9574 7.0277 20.6882 8.26776 18.8473C9.50781 16.9936 11.0036 15.5874 12.755 14.6285C14.5192 13.6697 16.5071 13.1903 18.7188 13.1903C20.9176 13.1903 22.8736 13.6314 24.5866 14.5135C26.3125 15.3828 27.7188 16.5973 28.8054 18.157C29.892 19.7166 30.5952 21.5128 30.9148 23.5455H26.2358C25.8011 21.7812 24.9574 20.3175 23.7045 19.1541C22.4517 17.9908 20.7898 17.4091 18.7188 17.4091C15.6761 17.4091 13.2791 18.7322 11.5277 21.3786C9.78906 24.0249 8.91335 27.7386 8.90057 32.5199H9.20739C9.9233 31.4332 10.7734 30.5064 11.7578 29.7393C12.755 28.9595 13.8544 28.3587 15.0561 27.9368C16.2578 27.5149 17.5298 27.304 18.8722 27.304C21.1222 27.304 23.1804 27.8665 25.0469 28.9915C26.9134 30.1037 28.4091 31.6442 29.5341 33.6129C30.6591 35.5689 31.2216 37.8125 31.2216 40.3438C31.2216 42.7727 30.6783 44.9972 29.5916 47.017C28.505 49.0241 26.9773 50.6222 25.0085 51.8111C23.0526 52.9872 20.7514 53.5625 18.1051 53.5369ZM18.1051 49.3182C19.7159 49.3182 21.1605 48.9155 22.4389 48.1101C23.7301 47.3047 24.7464 46.2244 25.4879 44.8693C26.2422 43.5142 26.6193 42.0057 26.6193 40.3438C26.6193 38.7202 26.255 37.2436 25.5263 35.9141C24.8104 34.5717 23.8196 33.5043 22.554 32.7116C21.3011 31.919 19.8693 31.5227 18.2585 31.5227C17.044 31.5227 15.9126 31.7656 14.8643 32.2514C13.8161 32.7244 12.8956 33.3764 12.103 34.2074C11.3232 35.0384 10.7095 35.9908 10.2621 37.0646C9.81463 38.1257 9.59091 39.2443 9.59091 40.4205C9.59091 41.9801 9.95526 43.4375 10.6839 44.7926C11.4254 46.1477 12.4354 47.2408 13.7138 48.0717C15.005 48.9027 16.4688 49.3182 18.1051 49.3182ZM51.5723 53.5369C48.6831 53.5369 46.2221 52.7507 44.1895 51.1783C42.1568 49.593 40.6035 47.2983 39.5297 44.294C38.4558 41.277 37.9189 37.6335 37.9189 33.3636C37.9189 29.1193 38.4558 25.495 39.5297 22.4908C40.6163 19.4737 42.176 17.1726 44.2086 15.5874C46.2541 13.9893 48.7086 13.1903 51.5723 13.1903C54.4359 13.1903 56.8841 13.9893 58.9167 15.5874C60.9622 17.1726 62.5218 19.4737 63.5957 22.4908C64.6824 25.495 65.2257 29.1193 65.2257 33.3636C65.2257 37.6335 64.6887 41.277 63.6149 44.294C62.541 47.2983 60.9877 49.593 58.9551 51.1783C56.9224 52.7507 54.4615 53.5369 51.5723 53.5369ZM51.5723 49.3182C54.4359 49.3182 56.6603 47.9375 58.2456 45.1761C59.8308 42.4148 60.6234 38.4773 60.6234 33.3636C60.6234 29.9631 60.2591 27.0675 59.5304 24.6768C58.8145 22.2862 57.7789 20.4645 56.4238 19.2116C55.0815 17.9588 53.4643 17.3324 51.5723 17.3324C48.7342 17.3324 46.5162 18.7322 44.9181 21.532C43.3201 24.3189 42.5211 28.2628 42.5211 33.3636C42.5211 36.7642 42.8791 39.6534 43.595 42.0312C44.3109 44.4091 45.34 46.218 46.6824 47.4581C48.0375 48.6982 49.6674 49.3182 51.5723 49.3182ZM84.095 46.0966V20.7841H88.3904V46.0966H84.095ZM73.5865 35.5881V31.2926H98.899V35.5881H73.5865Z" fill="white"/>
<path d="M9.25852 73.7273C9.18608 73.1155 8.89228 72.6406 8.37713 72.3026C7.86198 71.9645 7.23011 71.7955 6.48153 71.7955C5.93419 71.7955 5.45526 71.884 5.04474 72.0611C4.63826 72.2382 4.32031 72.4817 4.09091 72.7915C3.86553 73.1014 3.75284 73.4536 3.75284 73.848C3.75284 74.178 3.83132 74.4618 3.98828 74.6992C4.14927 74.9326 4.35452 75.1278 4.60405 75.2848C4.85357 75.4377 5.11518 75.5645 5.38885 75.6651C5.66252 75.7617 5.91406 75.8402 6.14347 75.9006L7.39915 76.2386C7.72112 76.3232 8.07931 76.4399 8.47372 76.5888C8.87216 76.7377 9.25249 76.9409 9.6147 77.1985C9.98094 77.4521 10.2828 77.7781 10.5202 78.1765C10.7577 78.5749 10.8764 79.0639 10.8764 79.6435C10.8764 80.3116 10.7013 80.9152 10.3512 81.4545C10.0051 81.9938 9.49799 82.4225 8.8299 82.7404C8.16584 83.0584 7.3589 83.2173 6.40909 83.2173C5.52367 83.2173 4.75698 83.0745 4.10902 82.7887C3.46508 82.503 2.95798 82.1045 2.58771 81.5934C2.22147 81.0823 2.0142 80.4886 1.96591 79.8125H3.51136C3.55161 80.2794 3.70857 80.6657 3.98224 80.9716C4.25994 81.2734 4.61009 81.4988 5.03267 81.6477C5.45928 81.7926 5.91809 81.8651 6.40909 81.8651C6.98059 81.8651 7.49373 81.7725 7.94851 81.5874C8.40329 81.3982 8.76349 81.1366 9.02912 80.8026C9.29474 80.4645 9.42756 80.0701 9.42756 79.6193C9.42756 79.2088 9.31286 78.8748 9.08345 78.6172C8.85405 78.3596 8.5522 78.1503 8.17791 77.9893C7.80362 77.8284 7.39915 77.6875 6.96449 77.5668L5.44318 77.1321C4.47727 76.8544 3.71259 76.458 3.14915 75.9428C2.5857 75.4277 2.30398 74.7536 2.30398 73.9205C2.30398 73.2282 2.49112 72.6245 2.86541 72.1094C3.24373 71.5902 3.75083 71.1877 4.38672 70.902C5.02663 70.6122 5.741 70.4673 6.52983 70.4673C7.3267 70.4673 8.03504 70.6102 8.65483 70.896C9.27462 71.1777 9.76563 71.564 10.1278 72.055C10.4941 72.546 10.6873 73.1035 10.7074 73.7273H9.25852ZM24.3668 74.5H22.8697C22.7811 74.0694 22.6262 73.6911 22.4048 73.3651C22.1875 73.0391 21.9219 72.7654 21.608 72.544C21.2981 72.3187 20.954 72.1496 20.5756 72.0369C20.1973 71.9242 19.8029 71.8679 19.3924 71.8679C18.6438 71.8679 17.9657 72.0571 17.358 72.4354C16.7543 72.8137 16.2733 73.3711 15.9151 74.1076C15.561 74.8441 15.3839 75.7476 15.3839 76.8182C15.3839 77.8887 15.561 78.7923 15.9151 79.5288C16.2733 80.2653 16.7543 80.8227 17.358 81.201C17.9657 81.5793 18.6438 81.7685 19.3924 81.7685C19.8029 81.7685 20.1973 81.7121 20.5756 81.5994C20.954 81.4867 21.2981 81.3197 21.608 81.0984C21.9219 80.873 22.1875 80.5973 22.4048 80.2713C22.6262 79.9413 22.7811 79.563 22.8697 79.1364H24.3668C24.2542 79.7682 24.0489 80.3337 23.7511 80.8327C23.4533 81.3318 23.083 81.7564 22.6403 82.1065C22.1976 82.4527 21.7005 82.7163 21.1492 82.8974C20.6018 83.0785 20.0162 83.169 19.3924 83.169C18.338 83.169 17.4002 82.9115 16.5792 82.3963C15.7582 81.8812 15.1122 81.1487 14.6413 80.1989C14.1705 79.2491 13.935 78.1222 13.935 76.8182C13.935 75.5142 14.1705 74.3873 14.6413 73.4375C15.1122 72.4877 15.7582 71.7552 16.5792 71.2401C17.4002 70.7249 18.338 70.4673 19.3924 70.4673C20.0162 70.4673 20.6018 70.5579 21.1492 70.739C21.7005 70.9201 22.1976 71.1857 22.6403 71.5359C23.083 71.882 23.4533 72.3046 23.7511 72.8036C24.0489 73.2987 24.2542 73.8641 24.3668 74.5ZM27.8661 83V70.6364H32.0437C33.0096 70.6364 33.8025 70.8014 34.4223 71.1314C35.042 71.4574 35.5009 71.9061 35.7987 72.4776C36.0965 73.0491 36.2454 73.6991 36.2454 74.4276C36.2454 75.156 36.0965 75.802 35.7987 76.3654C35.5009 76.9289 35.0441 77.3716 34.4283 77.6935C33.8125 78.0115 33.0257 78.1705 32.0678 78.1705H28.6872V76.8182H32.0196C32.6796 76.8182 33.2108 76.7216 33.6133 76.5284C34.0198 76.3352 34.3136 76.0616 34.4947 75.7074C34.6798 75.3492 34.7724 74.9226 34.7724 74.4276C34.7724 73.9325 34.6798 73.4999 34.4947 73.1296C34.3096 72.7594 34.0138 72.4736 33.6073 72.2724C33.2008 72.0671 32.6635 71.9645 31.9954 71.9645H29.3633V83H27.8661ZM33.6857 77.446L36.7284 83H34.9897L31.9954 77.446H33.6857ZM39.8202 83V70.6364H47.2818V71.9645H41.3173V76.142H46.8955V77.4702H41.3173V81.6719H47.3784V83H39.8202ZM51.0603 83V70.6364H58.522V71.9645H52.5575V76.142H58.1356V77.4702H52.5575V81.6719H58.6186V83H51.0603ZM72.1045 70.6364V83H70.6556L63.9184 73.2926H63.7976V83H62.3005V70.6364H63.7493L70.5107 80.3679H70.6314V70.6364H72.1045ZM82.9417 73.7273C82.8692 73.1155 82.5754 72.6406 82.0603 72.3026C81.5451 71.9645 80.9132 71.7955 80.1647 71.7955C79.6173 71.7955 79.1384 71.884 78.7279 72.0611C78.3214 72.2382 78.0034 72.4817 77.774 72.7915C77.5487 73.1014 77.436 73.4536 77.436 73.848C77.436 74.178 77.5144 74.4618 77.6714 74.6992C77.8324 74.9326 78.0377 75.1278 78.2872 75.2848C78.5367 75.4377 78.7983 75.5645 79.072 75.6651C79.3457 75.7617 79.5972 75.8402 79.8266 75.9006L81.0823 76.2386C81.4042 76.3232 81.7624 76.4399 82.1569 76.5888C82.5553 76.7377 82.9356 76.9409 83.2978 77.1985C83.6641 77.4521 83.9659 77.7781 84.2034 78.1765C84.4408 78.5749 84.5595 79.0639 84.5595 79.6435C84.5595 80.3116 84.3845 80.9152 84.0343 81.4545C83.6882 81.9938 83.1811 82.4225 82.513 82.7404C81.849 83.0584 81.042 83.2173 80.0922 83.2173C79.2068 83.2173 78.4401 83.0745 77.7921 82.7887C77.1482 82.503 76.6411 82.1045 76.2708 81.5934C75.9046 81.0823 75.6973 80.4886 75.649 79.8125H77.1945C77.2347 80.2794 77.3917 80.6657 77.6654 80.9716C77.9431 81.2734 78.2932 81.4988 78.7158 81.6477C79.1424 81.7926 79.6012 81.8651 80.0922 81.8651C80.6637 81.8651 81.1769 81.7725 81.6316 81.5874C82.0864 81.3982 82.4466 81.1366 82.7122 80.8026C82.9779 80.4645 83.1107 80.0701 83.1107 79.6193C83.1107 79.2088 82.996 78.8748 82.7666 78.6172C82.5372 78.3596 82.2353 78.1503 81.861 77.9893C81.4868 77.8284 81.0823 77.6875 80.6476 77.5668L79.1263 77.1321C78.1604 76.8544 77.3957 76.458 76.8323 75.9428C76.2688 75.4277 75.9871 74.7536 75.9871 73.9205C75.9871 73.2282 76.1743 72.6245 76.5485 72.1094C76.9269 71.5902 77.434 71.1877 78.0698 70.902C78.7098 70.6122 79.4241 70.4673 80.213 70.4673C81.0098 70.4673 81.7182 70.6102 82.338 70.896C82.9577 71.1777 83.4488 71.564 83.811 72.055C84.1772 72.546 84.3704 73.1035 84.3905 73.7273H82.9417Z" fill="white"/>
</svg>
